<svg width="32" height="32" viewBox="0 0 32 32" fill="none" xmlns="http://www.w3.org/2000/svg">
<g id="mingcute:task-2-fill">
<g id="Group">
<path id="Vector" fill-rule="evenodd" clip-rule="evenodd" d="M9.88801 3.99999C9.52095 4.84104 9.33209 5.74901 9.33334 6.66666C9.33334 7.37391 9.6143 8.05218 10.1144 8.55228C10.6145 9.05238 11.2928 9.33333 12 9.33333H20C20.7073 9.33333 21.3855 9.05238 21.8856 8.55228C22.3857 8.05218 22.6667 7.37391 22.6667 6.66666C22.6667 5.71866 22.4693 4.81599 22.112 3.99999H24C24.7073 3.99999 25.3855 4.28095 25.8856 4.78104C26.3857 5.28114 26.6667 5.95942 26.6667 6.66666V26.6667C26.6667 27.3739 26.3857 28.0522 25.8856 28.5523C25.3855 29.0524 24.7073 29.3333 24 29.3333H8.00001C7.29277 29.3333 6.61449 29.0524 6.11439 28.5523C5.61429 28.0522 5.33334 27.3739 5.33334 26.6667V6.66666C5.33334 5.95942 5.61429 5.28114 6.11439 4.78104C6.61449 4.28095 7.29277 3.99999 8.00001 3.99999H9.88801ZM16 18.6667H12C11.6464 18.6667 11.3073 18.8071 11.0572 19.0572C10.8072 19.3072 10.6667 19.6464 10.6667 20C10.6667 20.3536 10.8072 20.6928 11.0572 20.9428C11.3073 21.1929 11.6464 21.3333 12 21.3333H16C16.3536 21.3333 16.6928 21.1929 16.9428 20.9428C17.1929 20.6928 17.3333 20.3536 17.3333 20C17.3333 19.6464 17.1929 19.3072 16.9428 19.0572C16.6928 18.8071 16.3536 18.6667 16 18.6667ZM20 13.3333H12C11.6602 13.3337 11.3333 13.4638 11.0862 13.6971C10.8391 13.9304 10.6904 14.2493 10.6704 14.5885C10.6505 14.9278 10.7609 15.2618 10.979 15.5224C11.1971 15.783 11.5065 15.9505 11.844 15.9907L12 16H20C20.3536 16 20.6928 15.8595 20.9428 15.6095C21.1929 15.3594 21.3333 15.0203 21.3333 14.6667C21.3333 14.313 21.1929 13.9739 20.9428 13.7239C20.6928 13.4738 20.3536 13.3333 20 13.3333ZM16 2.66666C16.5629 2.66583 17.1196 2.78422 17.6335 3.01403C18.1473 3.24384 18.6067 3.57987 18.9813 3.99999C19.552 4.63733 19.92 5.45733 19.988 6.36266L20 6.66666H12C12 5.69999 12.3427 4.81333 12.9133 4.12266L13.0187 3.99999C13.752 3.18133 14.816 2.66666 16 2.66666Z" fill="white"/>
</g>
</g>
</svg>
