<svg width="149" height="131" viewBox="0 0 149 131" fill="none" xmlns="http://www.w3.org/2000/svg">
<g id="logo 4">
<g id="Clip path group">
<mask id="mask0_176_71" style="mask-type:luminance" maskUnits="userSpaceOnUse" x="116" y="21" width="21" height="48">
<g id="4eb9e21e7a">
<path id="Vector" d="M116.831 21.0557H136.506V68.4787H116.831V21.0557Z" fill="white"/>
</g>
</mask>
<g mask="url(#mask0_176_71)">
<g id="Group">
<path id="Vector_2" d="M116.831 21.0557H136.506V68.4884H116.831V21.0557Z" fill="#F3D7CA"/>
</g>
</g>
</g>
<g id="Clip path group_2">
<mask id="mask1_176_71" style="mask-type:luminance" maskUnits="userSpaceOnUse" x="116" y="68" width="21" height="53">
<g id="706cb41ea5">
<path id="Vector_3" d="M116.831 68.4788H136.506V120.224H116.831V68.4788Z" fill="white"/>
</g>
</mask>
<g mask="url(#mask1_176_71)">
<g id="Group_2">
<path id="Vector_4" d="M116.831 68.4788H136.506V120.239H116.831V68.4788Z" fill="#FFF8E3"/>
</g>
</g>
</g>
<g id="Clip path group_3">
<mask id="mask2_176_71" style="mask-type:luminance" maskUnits="userSpaceOnUse" x="19" y="17" width="102" height="104">
<g id="74f24b5ae9">
<path id="Vector_5" d="M19.0216 17.1956H120.746V120.352H19.0216V17.1956Z" fill="white"/>
</g>
</mask>
<g mask="url(#mask2_176_71)">
<g id="Group_3">
<path id="Vector_6" d="M18.0273 17.3577H111.546C112.146 17.3577 112.74 17.4157 113.33 17.5343C113.92 17.6529 114.491 17.8272 115.045 18.0571C115.601 18.2894 116.128 18.5701 116.626 18.9065C117.125 19.2429 117.587 19.6228 118.011 20.0487C118.437 20.4771 118.815 20.9393 119.149 21.4427C119.482 21.9436 119.763 22.4736 119.995 23.0302C120.223 23.5893 120.397 24.1628 120.515 24.7557C120.63 25.3462 120.69 25.944 120.69 26.549V121.383C120.69 121.986 120.63 122.583 120.515 123.174C120.397 123.767 120.223 124.343 119.995 124.899C119.763 125.456 119.482 125.986 119.149 126.487C118.815 126.99 118.437 127.455 118.011 127.881C117.587 128.307 117.125 128.689 116.626 129.023C116.128 129.359 115.601 129.643 115.045 129.872C114.491 130.105 113.92 130.279 113.33 130.395C112.74 130.514 112.146 130.572 111.546 130.572H18.0273C17.4278 130.572 16.8331 130.514 16.2433 130.395C15.6558 130.279 15.0828 130.105 14.529 129.872C13.9729 129.643 13.448 129.359 12.9472 129.023C12.4489 128.689 11.9866 128.307 11.5629 127.881C11.1367 127.455 10.7587 126.99 10.4241 126.487C10.0918 125.986 9.81011 125.456 9.58139 124.899C9.35026 124.343 9.17691 123.767 9.05893 123.174C8.94337 122.583 8.88318 121.986 8.88318 121.383V26.549C8.88318 25.944 8.94337 25.3462 9.05893 24.7557C9.17691 24.1628 9.35026 23.5893 9.58139 23.0302C9.81011 22.4736 10.0918 21.9436 10.4241 21.4427C10.7587 20.9393 11.1367 20.4771 11.5629 20.0487C11.9866 19.6228 12.4489 19.2429 12.9472 18.9065C13.448 18.5701 13.9729 18.2894 14.529 18.0571C15.0828 17.8272 15.6558 17.6529 16.2433 17.5343C16.8331 17.4157 17.4278 17.3577 18.0273 17.3577Z" fill="#F5EEE6"/>
</g>
</g>
</g>
<g id="Clip path group_4">
<mask id="mask3_176_71" style="mask-type:luminance" maskUnits="userSpaceOnUse" x="19" y="16" width="103" height="105">
<g id="334f1ac162">
<path id="Vector_7" d="M19.0216 16.7358H121.362V120.352H19.0216V16.7358Z" fill="white"/>
</g>
</mask>
<g mask="url(#mask3_176_71)">
<g id="Group_4">
<path id="Vector_8" d="M111.546 131.199H18.0273C17.3869 131.196 16.7537 131.133 16.1253 131.008C15.4969 130.882 14.8878 130.695 14.2955 130.449C13.7032 130.204 13.1422 129.902 12.6101 129.543C12.0781 129.185 11.5845 128.781 11.1319 128.326C10.6792 127.871 10.2724 127.375 9.91603 126.84C9.5597 126.305 9.25875 125.742 9.01317 125.146C8.7676 124.553 8.58221 123.941 8.45461 123.309C8.32941 122.678 8.26681 122.041 8.2644 121.398V26.5491C8.2644 25.9029 8.327 25.2665 8.45461 24.6348C8.5798 24.0032 8.76519 23.3885 9.01076 22.7932C9.25634 22.2003 9.55729 21.634 9.91362 21.0992C10.2699 20.5619 10.6744 20.0682 11.1271 19.6108C11.5797 19.1559 12.0733 18.7493 12.6053 18.3911C13.1374 18.033 13.7008 17.7305 14.2931 17.4836C14.8853 17.2368 15.4945 17.0504 16.1229 16.9246C16.7512 16.7988 17.3869 16.7358 18.0273 16.7358H111.546C112.187 16.7358 112.822 16.7988 113.451 16.9246C114.079 17.0504 114.691 17.2368 115.283 17.4836C115.875 17.7305 116.439 18.033 116.971 18.3911C117.503 18.7469 117.996 19.1559 118.451 19.6108C118.904 20.0658 119.308 20.5619 119.665 21.0967C120.021 21.6316 120.322 22.1979 120.568 22.7932C120.813 23.3885 120.999 24.0008 121.126 24.6348C121.251 25.2665 121.314 25.9029 121.314 26.5491V121.398C121.314 122.041 121.249 122.678 121.121 123.309C120.996 123.941 120.811 124.553 120.563 125.149C120.317 125.742 120.016 126.308 119.66 126.843C119.304 127.378 118.899 127.871 118.444 128.326C117.991 128.781 117.498 129.188 116.966 129.543C116.434 129.902 115.87 130.204 115.28 130.451C114.688 130.695 114.077 130.882 113.448 131.008C112.822 131.133 112.187 131.196 111.546 131.199ZM18.0273 17.9797C17.4687 17.9822 16.915 18.0378 16.366 18.1467C15.8171 18.258 15.285 18.4202 14.7674 18.6356C14.2497 18.851 13.7586 19.1147 13.2939 19.4269C12.8292 19.7391 12.3983 20.0949 12.0034 20.4942C11.6086 20.891 11.2547 21.3242 10.9441 21.7913C10.6335 22.2584 10.3687 22.7521 10.1544 23.2699C9.9401 23.7902 9.77879 24.3251 9.67045 24.8768C9.5597 25.4286 9.50433 25.9852 9.50433 26.5491V121.398C9.50433 121.959 9.5597 122.516 9.67045 123.067C9.77879 123.619 9.9401 124.154 10.1544 124.674C10.3687 125.195 10.6335 125.686 10.9441 126.155C11.2547 126.622 11.6086 127.056 12.0034 127.453C12.3983 127.849 12.8292 128.205 13.2939 128.517C13.7586 128.83 14.2497 129.093 14.7674 129.309C15.285 129.524 15.8171 129.689 16.366 129.798C16.915 129.909 17.4687 129.965 18.0273 129.965H111.546C112.107 129.965 112.661 129.909 113.21 129.798C113.759 129.689 114.291 129.527 114.809 129.311C115.324 129.096 115.815 128.832 116.282 128.517C116.747 128.205 117.178 127.852 117.572 127.453C117.97 127.056 118.321 126.622 118.634 126.155C118.945 125.688 119.207 125.195 119.422 124.674C119.636 124.156 119.8 123.619 119.908 123.067C120.019 122.516 120.074 121.959 120.074 121.398V26.5491C120.074 25.9852 120.019 25.4286 119.91 24.8768C119.8 24.3251 119.638 23.7902 119.424 23.2699C119.207 22.7496 118.945 22.2559 118.634 21.7889C118.324 21.3218 117.97 20.8886 117.572 20.4917C117.178 20.0924 116.747 19.7391 116.282 19.4269C115.817 19.1123 115.326 18.8485 114.809 18.6331C114.291 18.4178 113.759 18.2556 113.21 18.1467C112.661 18.0354 112.107 17.9822 111.546 17.9797H18.0273Z" fill="#F5EEE6"/>
</g>
</g>
</g>
<g id="Clip path group_5">
<mask id="mask4_176_71" style="mask-type:luminance" maskUnits="userSpaceOnUse" x="39" y="29" width="74" height="75">
<g id="e42c9ee380">
<path id="Vector_9" d="M39 29.5H112.962V103.844H39V29.5Z" fill="white"/>
</g>
</mask>
<g mask="url(#mask4_176_71)">
<g id="Group_5">
<path id="Vector_10" d="M75.8895 29.5C55.497 29.5 39 46.1015 39 66.5992C39 87.0945 55.497 103.698 75.8895 103.698C96.282 103.698 112.817 87.0945 112.817 66.5992C112.817 46.1015 96.282 29.5 75.8895 29.5ZM75.9087 96.2785C59.5947 96.2785 46.3817 82.9949 46.3817 66.5992C46.3817 50.201 59.5947 36.9198 75.9087 36.9198C92.2227 36.9198 105.436 50.201 105.436 66.5992C105.436 82.9949 92.2227 96.2785 75.9087 96.2785Z" fill="#E6A4B4"/>
</g>
</g>
</g>
<path id="Vector_11" d="M79.5351 46.5L74 46.5L74 68.7595L93.3572 80.4459L96.1452 75.8817L79.5351 65.9765L79.5351 46.5Z" fill="#E6A4B4"/>
<g id="Clip path group_6">
<mask id="mask5_176_71" style="mask-type:luminance" maskUnits="userSpaceOnUse" x="6" y="25" width="29" height="18">
<g id="5b4a2f772e">
<path id="Vector_12" d="M6.86792 25.1357H34.4158V42.4221H6.86792V25.1357Z" fill="white"/>
</g>
</mask>
<g mask="url(#mask5_176_71)">
<g id="Group_6">
<g id="Clip path group_7">
<mask id="mask6_176_71" style="mask-type:luminance" maskUnits="userSpaceOnUse" x="6" y="25" width="29" height="18">
<g id="75cc34902e">
<path id="Vector_13" d="M23.5382 25.1357C29.5404 25.1357 34.4062 29.0054 34.4062 33.7801C34.4062 38.5524 29.5404 42.4221 23.5382 42.4221H17.7359C11.7337 42.4221 6.86792 38.5524 6.86792 33.7801C6.86792 29.0054 11.7337 25.1357 17.7359 25.1357H23.5382Z" fill="white"/>
</g>
</mask>
<g mask="url(#mask6_176_71)">
<g id="Group_7">
<path id="Vector_14" d="M6.86792 25.1357H34.4158V42.4221H6.86792V25.1357Z" fill="#E6A4B4"/>
</g>
</g>
</g>
</g>
</g>
</g>
<g id="Clip path group_8">
<mask id="mask7_176_71" style="mask-type:luminance" maskUnits="userSpaceOnUse" x="6" y="57" width="29" height="19">
<g id="bd4f7dafad">
<path id="Vector_15" d="M6.86792 57.9153H34.4158V75.204H6.86792V57.9153Z" fill="white"/>
</g>
</mask>
<g mask="url(#mask7_176_71)">
<g id="Group_8">
<g id="Clip path group_9">
<mask id="mask8_176_71" style="mask-type:luminance" maskUnits="userSpaceOnUse" x="6" y="57" width="29" height="19">
<g id="c478f13117">
<path id="Vector_16" d="M23.5382 57.9153C29.5404 57.9153 34.4062 61.7849 34.4062 66.5597C34.4062 71.3344 29.5404 75.204 23.5382 75.204H17.7359C11.7337 75.204 6.86792 71.3344 6.86792 66.5597C6.86792 61.7849 11.7337 57.9153 17.7359 57.9153H23.5382Z" fill="white"/>
</g>
</mask>
<g mask="url(#mask8_176_71)">
<g id="Group_9">
<path id="Vector_17" d="M6.86792 57.9153H34.4158V75.204H6.86792V57.9153Z" fill="#E6A4B4"/>
</g>
</g>
</g>
</g>
</g>
</g>
<g id="Clip path group_10">
<mask id="mask9_176_71" style="mask-type:luminance" maskUnits="userSpaceOnUse" x="6" y="90" width="29" height="18">
<g id="ff7eb799f4">
<path id="Vector_18" d="M6.86792 90.697H34.4158V107.983H6.86792V90.697Z" fill="white"/>
</g>
</mask>
<g mask="url(#mask9_176_71)">
<g id="Group_10">
<g id="Clip path group_11">
<mask id="mask10_176_71" style="mask-type:luminance" maskUnits="userSpaceOnUse" x="6" y="90" width="29" height="18">
<g id="e32a2447b5">
<path id="Vector_19" d="M23.5382 90.697C29.5404 90.697 34.4062 94.5667 34.4062 99.339C34.4062 104.114 29.5404 107.983 23.5382 107.983H17.7359C11.7337 107.983 6.86792 104.114 6.86792 99.339C6.86792 94.5667 11.7337 90.697 17.7359 90.697H23.5382Z" fill="white"/>
</g>
</mask>
<g mask="url(#mask10_176_71)">
<g id="Group_11">
<path id="Vector_20" d="M6.86792 90.697H34.4158V107.983H6.86792V90.697Z" fill="#E6A4B4"/>
</g>
</g>
</g>
</g>
</g>
</g>
</g>
</svg>
