<svg width="30" height="32" viewBox="0 0 30 32" fill="none" xmlns="http://www.w3.org/2000/svg">
<path id="Vector" d="M5.39998 12.7999C5.3991 10.8053 6.01955 8.85994 7.1751 7.23414C8.33065 5.60834 9.96393 4.38284 11.848 3.72794C11.775 3.27084 11.8021 2.80334 11.9273 2.35772C12.0526 1.9121 12.273 1.49895 12.5734 1.14679C12.8738 0.794621 13.2471 0.511823 13.6674 0.317903C14.0877 0.123984 14.5451 0.0235596 15.008 0.0235596C15.4709 0.0235596 15.9282 0.123984 16.3486 0.317903C16.7689 0.511823 17.1421 0.794621 17.4425 1.14679C17.7429 1.49895 17.9634 1.9121 18.0886 2.35772C18.2139 2.80334 18.2409 3.27084 18.168 3.72794C20.049 4.38553 21.6788 5.61217 22.8314 7.23774C23.9839 8.86332 24.602 10.8073 24.6 12.7999V22.3999L29.4 25.5999V27.1999H0.599976V25.5999L5.39998 22.3999V12.7999ZM18.2 28.7999C18.2 29.6486 17.8628 30.4626 17.2627 31.0627C16.6626 31.6628 15.8487 31.9999 15 31.9999C14.1513 31.9999 13.3374 31.6628 12.7372 31.0627C12.1371 30.4626 11.8 29.6486 11.8 28.7999H18.2Z" fill="black"/>
</svg>
