<svg width="53" height="53" viewBox="0 0 53 53" fill="none" xmlns="http://www.w3.org/2000/svg">
<path d="M15.4901 17.3699C11.4695 22.5374 11.5399 31.7172 16.6784 36.2677C22.5126 41.4311 30.7234 41.3773 35.8868 36.628C42.077 30.9305 41.7209 21.4484 36.247 16.078C30.7442 10.6787 20.9102 10.3971 15.4901 17.3699Z" fill="#FCC11A"/>
<path d="M21.9453 15.5977C20.3553 14.8938 18.6162 16.8109 17.8585 18.1194C17.1008 19.432 16.3969 22.0033 18.0117 22.6616C19.6265 23.3159 20.7859 22.2062 21.9494 20.2891C23.1047 18.372 23.763 16.4052 21.9453 15.5977Z" fill="#FEE269"/>
<path d="M26.086 8.39305C25.7009 9.11352 25.8292 9.66836 26.5953 9.85055C27.3613 10.0327 32.1271 10.807 32.5288 10.8319C33.1126 10.8691 33.3279 10.4302 33.2575 9.92094C33.183 9.41164 32.0195 2.27734 31.9118 1.62313C31.8042 0.968906 31.1127 0.314688 30.4543 1.18836C29.796 2.06203 26.3758 7.85063 26.086 8.39305ZM38.425 13.3452C37.6756 13.5771 37.6963 14.0367 38.0979 14.6205C38.4996 15.2044 41.2655 19.4237 41.5181 19.7177C41.7748 20.0075 42.2096 20.082 42.5739 19.6431C42.9383 19.2084 47.4847 12.8318 47.816 12.4343C48.3625 11.7801 48.0354 11.0886 47.199 11.3039C46.5614 11.4737 38.8971 13.2003 38.425 13.3452ZM44.1391 25.6139C43.6008 25.3075 42.901 25.3945 42.7189 26.0859C42.5367 26.7774 41.7375 31.8 41.663 32.2389C41.5885 32.6778 41.9197 33.1126 42.4621 33.0049C43.0046 32.8973 50.5156 31.7834 51.0167 31.6592C51.8903 31.4398 52.1802 30.5661 51.2734 29.9119C50.6854 29.4854 44.6484 25.9037 44.1391 25.6139ZM38.131 37.5141C38.7107 37.2035 39.2242 37.4395 39.3691 38.0979C39.514 38.7521 41.1164 45.4516 41.3731 46.6897C41.5015 47.3108 40.7893 47.8201 40.2096 47.4557C39.6258 47.0913 33.2989 42.6816 32.8932 42.3213C32.3093 41.812 32.7151 41.282 33.0008 41.0129C33.5805 40.4622 37.5845 37.808 38.131 37.5141ZM20.5127 41.1909C19.7798 41.1205 19.5645 41.7748 19.6763 42.3545C19.7839 42.9383 20.8771 50.321 20.9516 50.8717C21.0592 51.6709 21.8998 52.0021 22.4422 51.1988C22.9846 50.3955 26.7278 44.4082 27.03 43.8451C27.5766 42.8265 27.1749 42.607 26.6284 42.3545C26.086 42.1019 21.2787 41.2655 20.5127 41.1909ZM10.0328 32.7109C10.5421 31.8745 11.1963 32.094 11.6724 32.8931C11.9954 33.4397 14.7282 37.1166 14.9849 37.5141C15.2417 37.9157 15.3493 38.6776 14.5502 38.8598C13.7428 39.0461 7.22956 40.7562 6.21096 40.9384C5.19237 41.1205 4.60854 40.3214 5.26276 39.4477C5.6437 38.9343 9.74292 33.1871 10.0328 32.7109ZM8.64979 26.3758C9.58143 26.7898 10.0203 26.6408 10.2149 25.9741C10.4717 25.1005 11.2335 21.0965 11.2708 20.1855C11.2956 19.5934 11.0514 19.022 10.1404 19.167C9.22948 19.3119 2.67901 20.227 1.8426 20.5168C0.869556 20.8563 0.939947 21.9246 1.58588 22.2641C2.3519 22.6658 7.99143 26.0859 8.64979 26.3758ZM19.9703 11.0886C20.4961 10.6704 20.3346 10.07 19.8626 9.74289C19.3906 9.41578 13.544 5.1882 12.8028 4.60852C12.1486 4.09922 11.3453 4.28141 11.5648 5.44492C11.7221 6.28133 13.5854 13.602 13.7138 14.1071C13.8587 14.6909 14.2976 14.9808 14.8069 14.6164C15.3079 14.2562 19.4237 11.5275 19.9703 11.0886Z" fill="#FFA722"/>
</svg>
