<svg width="42" height="43" viewBox="0 0 42 43" fill="none" xmlns="http://www.w3.org/2000/svg">
<path d="M9.975 15.1562C11.4625 14.3687 13.0013 13.7708 14.5915 13.3625C16.1817 12.9542 17.8074 12.75 19.4688 12.75C20.3438 12.75 21.2118 12.8083 22.0728 12.925C22.9338 13.0417 23.7866 13.2167 24.6313 13.45C26.0896 13.8583 27.2055 14.1354 27.979 14.2812C28.7525 14.4271 29.5762 14.5 30.45 14.5H32.0688L32.8125 7.5H9.1875L9.975 15.1562ZM9.1 39L5.25 4H36.75L32.9 39H9.1Z" fill="black"/>
<rect x="12.8333" y="18.5833" width="16.3333" height="16.3333" fill="white"/>
<path fill-rule="evenodd" clip-rule="evenodd" d="M21 36.9583C16.1878 36.9583 13.7817 36.9583 12.2862 35.4628C10.7917 33.9693 10.7917 31.5622 10.7917 26.75C10.7917 21.9378 10.7917 19.5317 12.2862 18.0362C13.7827 16.5417 16.1878 16.5417 21 16.5417C25.8122 16.5417 28.2183 16.5417 29.7128 18.0362C31.2084 19.5327 31.2084 21.9378 31.2084 26.75C31.2084 31.5622 31.2084 33.9683 29.7128 35.4628C28.2194 36.9583 25.8122 36.9583 21 36.9583ZM17.6823 21.1354C17.6823 20.9324 17.6016 20.7376 17.4581 20.594C17.3145 20.4505 17.1197 20.3698 16.9167 20.3698C16.7136 20.3698 16.5189 20.4505 16.3753 20.594C16.2317 20.7376 16.1511 20.9324 16.1511 21.1354V22.4115H14.875C14.672 22.4115 14.4772 22.4921 14.3336 22.6357C14.1901 22.7793 14.1094 22.974 14.1094 23.1771C14.1094 23.3801 14.1901 23.5749 14.3336 23.7185C14.4772 23.862 14.672 23.9427 14.875 23.9427H16.1511V25.2187C16.1511 25.4218 16.2317 25.6165 16.3753 25.7601C16.5189 25.9037 16.7136 25.9844 16.9167 25.9844C17.1197 25.9844 17.3145 25.9037 17.4581 25.7601C17.6016 25.6165 17.6823 25.4218 17.6823 25.2187V23.9427H18.9584C19.1614 23.9427 19.3561 23.862 19.4997 23.7185C19.6433 23.5749 19.724 23.3801 19.724 23.1771C19.724 22.974 19.6433 22.7793 19.4997 22.6357C19.3561 22.4921 19.1614 22.4115 18.9584 22.4115H17.6823V21.1354ZM23.0417 22.4115C22.8386 22.4115 22.6439 22.4921 22.5003 22.6357C22.3567 22.7793 22.2761 22.974 22.2761 23.1771C22.2761 23.3801 22.3567 23.5749 22.5003 23.7185C22.6439 23.862 22.8386 23.9427 23.0417 23.9427H27.125C27.3281 23.9427 27.5228 23.862 27.6664 23.7185C27.81 23.5749 27.8906 23.3801 27.8906 23.1771C27.8906 22.974 27.81 22.7793 27.6664 22.6357C27.5228 22.4921 27.3281 22.4115 27.125 22.4115H23.0417ZM23.0417 28.5365C22.8386 28.5365 22.6439 28.6171 22.5003 28.7607C22.3567 28.9043 22.2761 29.099 22.2761 29.3021C22.2761 29.5051 22.3567 29.6999 22.5003 29.8435C22.6439 29.987 22.8386 30.0677 23.0417 30.0677H27.125C27.3281 30.0677 27.5228 29.987 27.6664 29.8435C27.81 29.6999 27.8906 29.5051 27.8906 29.3021C27.8906 29.099 27.81 28.9043 27.6664 28.7607C27.5228 28.6171 27.3281 28.5365 27.125 28.5365H23.0417ZM15.9265 28.761C15.7813 28.6258 15.5894 28.5522 15.391 28.5557C15.1927 28.5592 15.0034 28.6395 14.8632 28.7798C14.7229 28.9201 14.6425 29.1093 14.639 29.3077C14.6355 29.506 14.7092 29.698 14.8444 29.8431L15.8346 30.8333L14.8444 31.8235C14.7692 31.8936 14.7088 31.9782 14.667 32.0721C14.6251 32.166 14.6026 32.2674 14.6008 32.3702C14.599 32.473 14.6179 32.5751 14.6564 32.6704C14.6949 32.7658 14.7523 32.8524 14.825 32.9251C14.8977 32.9978 14.9843 33.0551 15.0796 33.0936C15.1749 33.1321 15.277 33.151 15.3798 33.1492C15.4826 33.1474 15.584 33.1249 15.6779 33.083C15.7719 33.0412 15.8564 32.9808 15.9265 32.9056L16.9167 31.9154L17.9069 32.9056C17.977 32.9808 18.0615 33.0412 18.1554 33.083C18.2493 33.1249 18.3507 33.1474 18.4535 33.1492C18.5563 33.151 18.6584 33.1321 18.7538 33.0936C18.8491 33.0551 18.9357 32.9978 19.0084 32.9251C19.0811 32.8524 19.1384 32.7658 19.1769 32.6704C19.2154 32.5751 19.2344 32.473 19.2325 32.3702C19.2307 32.2674 19.2082 32.166 19.1664 32.0721C19.1245 31.9782 19.0642 31.8936 18.989 31.8235L17.9988 30.8333L18.989 29.8431C19.0642 29.773 19.1245 29.6885 19.1664 29.5946C19.2082 29.5007 19.2307 29.3993 19.2325 29.2965C19.2344 29.1937 19.2154 29.0916 19.1769 28.9962C19.1384 28.9009 19.0811 28.8143 19.0084 28.7416C18.9357 28.6689 18.8491 28.6116 18.7538 28.5731C18.6584 28.5346 18.5563 28.5157 18.4535 28.5175C18.3507 28.5193 18.2493 28.5418 18.1554 28.5836C18.0615 28.6255 17.977 28.6858 17.9069 28.761L16.9167 29.7512L15.9265 28.761ZM23.0417 31.599C22.8386 31.599 22.6439 31.6796 22.5003 31.8232C22.3567 31.9668 22.2761 32.1615 22.2761 32.3646C22.2761 32.5676 22.3567 32.7624 22.5003 32.906C22.6439 33.0495 22.8386 33.1302 23.0417 33.1302H27.125C27.3281 33.1302 27.5228 33.0495 27.6664 32.906C27.81 32.7624 27.8906 32.5676 27.8906 32.3646C27.8906 32.1615 27.81 31.9668 27.6664 31.8232C27.5228 31.6796 27.3281 31.599 27.125 31.599H23.0417Z" fill="black"/>
</svg>
