<svg width="25" height="25" viewBox="0 0 25 25" fill="none" xmlns="http://www.w3.org/2000/svg">
<g id="file-attach-01">
<path id="Icon" d="M12.1998 22.1H6.19979C4.87431 22.1 3.7998 21.0254 3.7998 19.7L3.7999 5.30001C3.79991 3.97453 4.87442 2.90002 6.1999 2.90002H17.0002C18.3256 2.90002 19.4002 3.97454 19.4002 5.30002V10.1M8.00018 7.70002H15.2002M8.00018 11.3H15.2002M15.2002 16.054V18.9984C15.2002 20.4533 16.7516 21.7878 18.2065 21.7878C19.6615 21.7878 21.2002 20.4533 21.2002 18.9984V15.2791C21.2002 14.5089 20.7574 13.7272 19.7723 13.7272C18.7186 13.7272 18.2065 14.5089 18.2065 15.2791V18.8434M8.00018 14.9H11.6002" stroke="#555555" stroke-width="2" stroke-linecap="round" stroke-linejoin="round"/>
</g>
</svg>
